<svg xmlns="http://www.w3.org/2000/svg" viewBox="0 0 256 256" fill="none">
  <!-- Outer G ring -->
  <path
    d="M128 44
       C81.6 44 44 81.6 44 128
       C44 174.4 81.6 212 128 212
       C174.4 212 212 174.4 212 128
       H170
       C170 151.2 151.2 170 128 170
       C104.8 170 86 151.2 86 128
       C86 104.8 104.8 86 128 86
       C144.3 86 158.5 95.0 165.8 108.3
       L200.5 88.3
       C186.0 62.4 158.7 44 128 44Z"
    fill="#19A974"
  />

  <!-- Inner cut to make the G clean -->
  <path
    d="M128 72
       C97.1 72 72 97.1 72 128
       C72 158.9 97.1 184 128 184
       C158.9 184 184 158.9 184 128
       H156
       C156 143.5 143.5 156 128 156
       C112.5 156 100 143.5 100 128
       C100 112.5 112.5 100 128 100
       C140.2 100 150.6 106.7 155.8 116.5
       L180.3 102.3
       C171.2 84.3 151.1 72 128 72Z"
    fill="#0E7C66"
  />

  <!-- Leaf notch (simple) -->
  <path
    d="M188 58
       C176 58 166 67 166 80
       C166 98 184 110 184 110
       C184 110 202 98 202 80
       C202 67 200 58 188 58Z"
    fill="#0EA5A4"
  />
</svg>
